<?xml version="1.0" encoding="utf-8"?>
<!-- Generator: Adobe Illustrator 16.0.0, SVG Export Plug-In . SVG Version: 6.00 Build 0)  -->
<!DOCTYPE svg PUBLIC "-//W3C//DTD SVG 1.1//EN" "http://www.w3.org/Graphics/SVG/1.1/DTD/svg11.dtd">
<svg version="1.1"
	 id="Layer_1" xmlns:rdf="http://www.w3.org/1999/02/22-rdf-syntax-ns#" xmlns:cc="http://creativecommons.org/ns#" xmlns:dc="http://purl.org/dc/elements/1.1/"
	 xmlns="http://www.w3.org/2000/svg" xmlns:xlink="http://www.w3.org/1999/xlink" x="0px" y="0px" width="266px" height="400px"
	 viewBox="0 0 266 400" enable-background="new 0 0 266 400" xml:space="preserve">
<path d="M266,130.785C266,58.67,206.337,0,133,0C59.664,0,0,58.67,0,130.785c0,64.222,47.317,117.78,109.47,128.735v43.984H56.273
	v42.218h53.197V400h47.059v-54.277h51.152v-42.218h-51.152v-43.984C218.683,248.565,266,195.007,266,130.785z M34.54,130.785
	c0-53.07,44.169-96.246,98.46-96.246s98.461,43.175,98.461,96.246s-44.17,96.246-98.461,96.246S34.54,183.855,34.54,130.785z"/>
</svg>
